<svg width="240" height="252" viewBox="0 0 240 252" fill="none" xmlns="http://www.w3.org/2000/svg">
<g filter="url(#filter0_d_37_588)">
<mask id="path-1-inside-1_37_588" fill="white">
<path d="M122.638 201.95C121.657 200.333 122.181 198.592 121.76 197.189C120.621 203.199 121.303 209.327 121.687 215.423C121.962 219.79 123.576 223.946 126.765 227.058C128.754 229 126.516 230.15 126.452 231.663C126.401 232.877 125.484 233.891 123.963 233.916C122.803 233.935 122.249 233.351 122.328 232.272C122.587 228.748 121.187 225.753 119.619 222.728C117.923 219.455 118.048 215.737 117.553 212.183C117.376 210.914 117.377 209.62 117.291 208.246C115.82 208.32 115.57 209.245 115.31 210.05C112.691 218.178 110.636 226.406 111.161 235.054C111.276 236.953 110.532 238.173 108.724 238.825C107.659 239.209 106.717 239.411 105.744 238.593C104.719 237.731 104.405 236.716 104.995 235.539C107.671 230.206 105.603 224.04 107.971 218.654C108.079 218.408 107.921 218.045 107.868 217.566C106.195 218.217 105.413 219.634 104.39 220.726C100.566 224.808 96.0697 228.123 91.914 231.826C91.0973 232.553 90.176 232.977 89.3205 232.083C88.4966 231.221 88.5448 230.072 89.2009 229.129C89.6023 228.553 90.2856 228.149 90.8927 227.743C95.094 224.934 99.1925 222.007 102.357 217.981C102.657 217.599 103.032 217.219 103.169 216.775C103.56 215.5 104.986 214.191 103.952 212.917C102.856 211.567 101.2 212.348 99.8235 212.82C97.7387 213.537 95.5991 213.163 93.4869 213.314C91.8209 213.434 90.1259 213.383 89.4174 215.627C88.9186 217.207 87.205 216.743 85.9677 216.518C84.6924 216.287 84.4239 215.365 84.6505 214.082C85.2935 210.442 85.8437 210.144 89.4889 210.411C96.0454 210.89 102.661 211.342 108.216 206.668C110.335 204.885 112.318 203.001 113.259 200C111.368 199.683 110.267 200.608 109.217 201.411C106.323 203.624 103.092 205.194 99.7963 206.673C98.6436 207.191 97.4706 207.475 96.2205 207.343C93.4936 207.056 90.8018 206.216 88.0937 207.783C87.1218 208.345 85.845 207.682 84.9689 206.83C84.0575 205.945 83.2434 204.872 83.7119 203.581C84.1687 202.322 85.4852 202.657 86.5182 202.648C89.0399 202.625 91.3731 203.679 93.4997 204.692C95.3969 205.596 97.0425 205.666 98.6042 204.854C102.305 202.929 105.863 200.729 109.464 198.615C109.87 198.376 110.279 198.041 110.252 197.135C108.143 196.244 105.757 196.846 103.525 196.636C98.8106 196.192 94.0671 196.28 89.7739 193.762C88.7767 193.177 87.8563 192.582 86.9971 191.815C86.0229 190.945 85.611 189.93 86.0727 188.749C86.6295 187.325 87.733 188.275 88.6142 188.345C90.0153 188.456 91.3617 188.245 92.7438 187.97C99.8445 186.559 106.49 183.718 112.998 180.799C117.855 178.62 122.772 176.157 126.897 172.587C129.949 169.945 133.892 169.511 137.421 168.055C138.28 167.701 139.395 167.776 139.945 166.615C138.928 165.459 137.591 165.618 136.334 165.534C129.329 165.065 122.766 167.343 116.053 168.746C108.19 170.389 100.908 173.593 93.8517 177.213C88.3851 180.017 83.5268 183.99 79.1624 188.26C76.6421 190.725 74.4066 193.552 71.6877 195.892C67.9475 199.109 63.351 200.418 58.726 201.302C54.4901 202.111 51.7675 198.117 53.6355 194.228C55.0948 191.19 57.005 188.44 59.2856 185.929C61.4833 183.508 62.2629 182.071 59.426 179.335C54.2792 174.37 53.4836 167.971 54.5026 161.181C55.2231 156.38 57.0246 152.068 60.075 148.286C60.491 147.77 60.9729 147.257 60.4588 146.549C60.0212 145.947 59.3528 145.752 58.7054 145.968C56.8899 146.571 55.2399 146.369 53.5012 145.535C51.9005 144.766 50.557 144.897 50.2265 147.22C49.1753 154.611 44.4533 160.254 40.6635 166.258C38.0917 170.332 37.4683 174.975 35.6304 179.228C35.4775 179.582 35.4206 180.096 35.5588 180.438C36.4976 182.766 36.3049 184.986 35.3945 187.308C35.0089 188.291 34.7332 189.198 33.6842 189.464C32.5007 189.764 31.1702 190.044 30.1391 189.224C29.1063 188.403 29.8738 187.362 30.3413 186.564C31.7177 184.215 30.6499 181.628 31.146 179.253C32.4526 172.997 34.3155 166.926 38.1806 161.653C39.1977 160.265 40.3779 158.851 40.4983 157.046C39.7916 156.468 39.2604 156.775 38.7804 157.07C33.4441 160.347 28.5621 164.142 24.9007 169.324C24.258 170.234 23.9439 171.047 24.4153 172.256C25.3967 174.773 22.9608 178.264 20.2428 178.482C17.3892 178.711 16.0865 176.712 17.5312 173.962C20.0567 169.155 22.1738 164.052 26.8113 160.673C28.0551 159.766 29.0676 158.517 30.499 157.851C35.802 155.383 39.3079 150.555 44.1399 147.466C44.662 147.132 45.2441 146.54 44.7924 145.815C44.2905 145.009 43.4514 145.144 42.854 145.632C36.7313 150.631 29.0709 152.809 22.4102 156.824C20.2388 158.133 18.5087 159.477 17.6866 162.118C17.0262 164.24 15.0448 165.622 12.8516 166.331C11.7868 166.675 10.6577 166.538 9.99724 165.496C9.43574 164.61 9.3778 163.585 10.2069 162.782C11.0813 161.935 11.2401 160.747 11.7354 159.735C12.8897 157.376 15.1923 156.586 17.2137 155.51C20.9592 153.514 24.9009 151.888 28.6433 149.888C31.6426 148.285 34.9789 147.247 37.5203 144.831C38.0426 144.334 38.8449 143.942 38.5166 143.053C38.2336 142.286 37.4777 142.032 36.7195 141.955C29.1929 141.192 21.6811 141.207 14.2005 142.461C13.3618 142.602 12.7215 143.018 12.3767 143.904C11.4985 146.161 9.6538 147.027 7.44595 146.554C5.08288 146.047 4.52316 143.694 4.04646 141.814C3.70187 140.455 5.3491 140.198 6.50726 140.111C10.996 139.778 15.4863 139.465 19.9775 139.165C23.4175 138.936 26.7749 137.759 30.7203 139.003C30.2102 138.136 30.1609 137.923 30.0549 137.89C24.2544 136.045 19.2901 132.542 13.9392 129.806C12.721 129.183 11.1599 128.576 11.4603 127.196C11.8023 125.625 12.4968 123.603 14.2782 123.17C15.9025 122.776 17.0916 123.994 17.7703 125.619C19.4045 129.533 22.9724 131.395 26.5719 132.53C30.8384 133.876 35.1599 135.109 39.452 136.41C39.7345 136.496 40.0571 136.449 40.3419 136.463C40.7636 135.357 39.9163 135.033 39.4018 134.618C32.5739 129.106 27.8398 121.927 23.4757 114.479C22.1309 112.184 20.9799 109.86 18.0377 109.502C17.8092 108.292 18.4304 107.434 18.7517 106.547C19.1841 105.354 20.32 104.876 21.5159 104.841C22.5928 104.809 22.899 105.744 23.338 106.565C27.2411 113.859 31.2213 121.163 36.9043 127.224C40.6688 131.239 44.5882 135.274 50.4375 137.923C48.7028 134.897 46.9982 132.662 44.957 130.762C43.5758 129.477 42.6308 128.054 42.0365 126.315C41.0826 123.523 40.2387 120.683 39.1008 117.968C36.8121 112.506 38.7483 107.57 40.7399 102.611C40.9206 102.161 41.2637 101.779 41.5023 101.349C45.0807 94.9043 48.6008 94.5651 53.4597 100.201C55.247 102.275 56.9295 102.41 59.0191 100.649C62.0924 98.058 64.0831 98.8743 65.0418 102.859C66.3399 108.255 67.8529 113.597 69.7817 118.814C71.1585 122.539 74.2597 124.486 77.523 125.955C79.8864 127.019 82.0368 128.304 83.9599 129.92C86.4647 132.025 89.5269 133.938 92.3348 134.293C99.7904 135.238 105.985 139.63 113.25 140.93C116.34 141.482 119.344 142.906 121.987 144.742C123.667 145.908 125.835 146.102 127.299 147.692C127.761 148.194 128.671 148.149 129.47 147.596C129.658 145.926 128.903 144.488 127.531 143.748C123.18 141.402 120.789 137.218 117.776 133.636C116.731 132.392 115.826 131.035 114.646 129.881C106.821 122.231 98.0161 115.919 88.9526 109.797C73.6177 99.4393 56.7723 92.8279 39.2493 87.4687C34.1773 85.9174 29.2233 83.9422 24.1131 82.4386C21.8824 81.7823 19.9083 80.4674 20.553 77.4973C20.6029 77.2676 20.5458 77.0047 20.4985 76.7651C19.8532 73.4959 20.26 72.5223 23.5176 71.6284C30.5957 69.6864 37.5381 69.1917 44.9166 71.3145C58.3 75.1648 70.0808 81.7764 81.1274 89.9749C83.0294 91.3865 84.7387 93.0591 87.173 93.5837C88.2521 93.8164 88.4875 94.9822 89.1777 95.6582C96.0902 102.428 103.206 109.01 109.788 116.088C112.339 118.832 115.011 121.619 117.082 124.839C119.682 128.881 122.694 132.582 126.463 136.13C127.165 134.15 126.558 132.727 126.034 131.303C124.665 127.585 122.346 124.37 120.46 120.93C119.395 118.988 118.381 117.15 118.11 114.872C117.941 113.458 116.957 112.209 115.985 111.077C114.423 109.257 113.193 107.275 112.775 104.833C112.407 102.678 110.89 101.269 109.284 99.9429C107.883 98.7865 106.563 97.5891 106.579 95.509C106.587 94.3547 105.788 93.6577 104.679 93.643C96.6228 93.5363 91.0106 88.6616 85.6086 83.6305C81.468 79.7743 77.4241 75.8199 72.8718 72.4541C70.1428 70.4364 66.8334 69.5752 63.6777 68.4947C61.4716 67.7393 59.6402 66.7792 58.6943 64.518C58.1696 63.2634 57.0635 62.4865 56.021 61.6872C55.0726 60.9601 54.388 60.1236 54.3738 58.8297C54.3062 52.6487 56.236 52.5791 61.8687 54.4926C70.1369 57.3014 77.7462 61.7534 83.7164 68.6025C87.7008 73.1735 92.6013 76.8269 97.4974 80.4111C98.0227 80.7957 98.6017 81.1442 99.2074 81.3726C100.085 81.7035 101.086 82.4921 101.919 81.5421C102.601 80.7645 101.921 79.861 101.681 79.003C100.199 73.7175 98.342 68.5744 96.2444 63.5001C94.1674 58.4756 91.485 53.8325 87.8811 49.7978C84.6176 46.1441 84.2779 41.4668 82.9541 37.1261C82.6507 36.1314 83.4513 35.2795 83.7639 34.5406C83.3025 33.4358 82.2936 33.2153 81.7255 32.5212C81.1696 31.8419 80.8301 31.0822 81.3162 30.2686C81.8276 29.4127 82.6342 29.5523 83.4956 29.7406C86.5902 30.417 88.8166 32.5113 91.2188 34.3347C92.5031 35.3095 93.8305 36.2274 95.0826 37.1307C95.9536 36.4336 95.4858 35.9558 95.2005 35.4914C93.0459 31.9844 90.4712 28.8043 87.6398 25.8281C86.8304 24.9773 85.8175 24.502 84.6934 24.1407C82.9172 23.5697 81.4967 22.5581 81.143 20.355C85.4648 18.0454 88.0756 23.0622 92.1138 22.7321C91.1814 19.4873 90.132 16.3769 88.512 13.4659C87.9837 12.5167 86.8571 11.3902 88.3722 10.5395C89.6875 9.80098 91.0069 10.2123 92.0797 11.4521C94.3415 14.066 94.8389 17.3295 95.5211 20.5138C95.7091 21.3914 95.6724 22.3789 96.1782 23.1049C98.9964 27.1504 98.2897 31.8398 98.7388 36.4801C99.95 36.4087 99.9067 35.6065 99.9795 34.6762C100.232 31.4516 99.6679 28.3051 99.0753 25.184C98.128 20.1939 98.3099 15.0962 97.4465 10.0877C97.1566 8.40629 97.9256 6.4972 98.0658 4.64577C98.2265 2.52449 100.133 3.65471 101.229 4.05359C102.227 3.69312 102.239 2.85272 102.579 2.22603C103.122 1.22427 103.217 -0.476235 104.985 0.125808C106.604 0.676927 108.413 1.37163 108.144 3.60868C107.943 5.28595 107.838 6.99336 106.74 8.49818C105.259 10.5279 105.31 12.9773 105.401 15.3663C105.538 18.9638 106.237 22.5313 105.924 26.1573C105.854 26.9746 106.108 27.7918 107.131 28.1566C108.462 27.4083 108.619 26.1562 108.483 24.8002C108.032 20.3138 107.815 15.8387 108.035 11.3119C108.188 8.16191 109.757 5.34649 109.68 2.17589C109.657 1.22906 110.598 0.597294 111.642 0.772017C112.826 0.970242 113.624 1.8343 113.615 2.97464C113.595 5.75232 114.049 8.55479 113.42 11.306C113.14 12.5325 113.125 13.7431 113.212 14.9699C113.289 16.0416 113.821 16.5565 114.976 16.512C118.794 16.365 120.275 18.5076 118.729 22.0617C117.686 24.4601 116.682 26.944 115.196 29.0631C113.488 31.4981 113.378 34.0416 114.767 36.1909C118.777 42.3958 117.569 48.8461 116.391 55.4013C115.83 58.523 116.316 61.6105 117.347 64.5744C118.303 67.3206 118.45 70.4105 120.653 72.6532C120.93 72.9355 121.066 73.3721 121.834 73.3622C122.621 71.6721 122.675 69.7638 121.808 68.1535C121.069 66.7807 120.67 65.2013 119.787 64.0056C118.189 61.8442 118.653 59.7141 119.193 57.4821C120.759 51.0098 123.778 45.9233 130.723 43.8137C133.023 43.115 134.981 41.1697 136.983 39.6463C138.266 38.6694 139.52 37.8582 140.903 39.1184C142.278 40.3717 141.564 41.676 140.744 43.0558C137.053 49.2651 132.265 54.9443 131.279 62.4862C130.919 65.243 130.465 67.9834 130.454 70.7764C130.44 74.5415 130.559 78.3004 129.559 82.0148C129.086 83.7729 128.641 85.4872 127.617 86.9997C126.314 88.9254 126.38 90.8273 127.055 93.0573C128.772 98.7353 131.123 104.314 130.809 110.43C130.706 112.457 130.705 114.518 129.904 116.453C129.786 116.738 129.641 117.163 129.764 117.373C130.851 119.224 130.714 121.072 129.973 122.996C129.784 123.485 129.768 124.145 130.651 124.761C132.296 122.051 132.897 119.061 133.028 116.06C133.329 109.166 134.266 102.345 136.379 95.8257C137.829 91.3538 139.51 86.9141 141.435 82.5589C144.432 75.7766 147.665 69.1066 151.089 62.5633C153.239 58.4531 155.308 54.0014 159.267 51.1057C161.658 49.3566 163.907 47.2922 167.279 47.4871C170.607 47.6794 173.896 49.8943 174.736 53.1856C175.662 56.8104 176.086 60.4213 172.995 63.4659C172.344 64.1068 171.982 65.1764 171.777 66.112C171.081 69.2899 169.346 71.7041 166.993 73.9151C161.784 78.8097 157.475 84.456 153.751 90.5669C151.592 94.1105 149.176 97.4772 147.274 101.201C144.415 106.801 143.401 113.044 140.884 118.716C138.27 124.607 138.428 130.825 137.841 136.98C137.76 137.831 138.015 138.596 138.282 139.375C138.467 139.915 138.854 140.544 138.72 141.01C137.404 145.597 140.105 149.068 141.77 152.882C142.886 155.437 143.863 157.99 145.926 159.974C146.625 160.646 147.105 161.559 148.224 161.66C149.282 161.084 148.928 160.077 148.919 159.245C148.826 150.586 151.013 142.568 155.515 135.168C157.771 131.459 160.282 127.829 162.131 123.966C165.509 116.908 168.054 109.458 163.614 101.745C162.499 99.8079 161.283 97.9673 158.671 97.7997C157.677 97.7359 156.63 96.6624 157.33 96.004C159.569 93.9001 159.025 90.7838 160.553 88.4276C162.305 85.7271 163.31 85.1325 166.287 86.2013C168.112 86.856 171.304 85.9211 172.277 84.2534C173.201 82.6709 174.356 82.3153 175.975 82.9786C178.518 84.0211 180.816 85.2067 181.844 88.1233C182.343 89.5373 183.353 90.9462 184.502 91.9205C187.383 94.3644 188.383 97.9039 190.104 101C190.816 102.281 190.676 104.021 191.005 105.535C191.192 106.394 191.356 107.432 192.482 107.549C193.468 107.652 193.939 106.814 194.238 106.069C195.998 101.679 198.524 97.5604 198.999 92.7067C199.12 91.4749 199.304 90.2323 198.885 89.0483C198.103 86.8375 199.007 84.8456 199.602 82.8208C199.887 81.8503 200.762 81.4281 201.688 81.3429C202.599 81.2592 202.821 82.1031 203.189 82.7361C205.121 86.0587 204.015 89.5579 203.323 92.7977C202.143 98.3156 200.205 103.642 197.076 108.456C196.363 109.553 195.408 110.737 195.833 112.331C197.126 112.586 197.806 111.654 198.514 110.945C202.071 107.39 204.788 103.242 207.187 98.8307C209.37 94.8154 211.393 90.7618 213.049 86.4847C214.028 83.9561 214.522 81.4654 214.392 78.8414C214.322 77.4206 214.601 76.4077 216.006 75.9349C217.552 75.4147 218.733 75.9578 219.589 77.286C220.584 78.8303 220.736 80.6139 220.386 82.2839C218.549 91.0609 216.223 99.5472 209.31 106.083C206.061 109.155 203.538 113.001 200.172 116.028C199.014 117.068 197.893 117.988 196.12 118.029C194.443 118.068 193.584 119.666 192.594 120.841C192.26 121.237 192.297 121.784 192.583 122.232C193.001 122.887 193.538 122.556 194.102 122.416C198.434 121.344 201.955 118.648 205.468 116.202C210.823 112.472 215.973 108.374 220.114 103.215C220.828 102.325 221.436 101.341 222.024 100.359C222.932 98.8402 224.294 99.0732 225.423 99.7183C226.59 100.384 226.527 101.501 225.811 102.7C223.121 107.204 220.41 111.695 215.883 114.632C213.085 116.447 210.247 118.23 207.284 119.748C205.012 120.912 203.038 122.375 200.521 124.268C203.626 125.171 206.237 124.984 208.755 125.334C210.699 125.605 212.711 125.482 214.622 125.875C216.778 126.319 219 126.982 219.116 129.864C219.138 130.416 219.51 130.732 219.926 131.02C221.733 132.272 227.252 131.987 229.022 130.548C229.34 130.289 229.633 129.982 229.988 129.791C231.395 129.034 232.814 127.637 234.478 128.787C236.285 130.036 234.819 132.132 235.292 133.816C235.503 134.565 234.185 134.912 233.37 134.886C229.884 134.778 226.361 135.214 222.935 134.145C222.333 133.958 221.483 133.785 221.019 134.061C217.407 136.212 214.636 133.643 211.601 132.521C209.932 131.903 208.564 130.336 206.05 130.818C207.385 132.441 208.365 133.949 209.643 135.134C216.955 141.911 217.206 150.865 213.645 159.268C213.253 160.193 212.671 160.982 211.825 161.539C210.935 162.125 209.991 162.856 208.888 162.332C207.597 161.717 208.164 160.548 208.261 159.506C208.822 153.446 207.698 147.571 205.932 141.842C204.377 136.8 199.835 135.137 195.393 134.549C188.031 133.573 180.528 132.963 173.38 136.107C173.012 136.269 172.559 136.458 172.199 136.381C168.214 135.539 166.345 138.138 164.299 140.87C159.765 146.923 156.529 153.538 154.713 160.876C154.198 162.957 154.704 164.685 155.838 166.443C160.463 173.616 165.966 180.092 171.4 186.641C173.731 189.45 175.623 192.623 178.198 194.975C179.224 194.946 179.484 194.354 179.7 193.865C181.999 188.661 187.762 184.793 191.621 182.87C193.77 181.881 195.055 180.326 196.374 178.281C198.014 176.716 198.803 176.861 200.719 177.701C202.652 178.548 202.225 179.521 201.703 180.901C199.644 186.343 199.712 191.975 198.998 197.637C198.232 203.708 194.841 209.095 188.424 211.42C187.103 211.899 186.207 212.86 186.949 214.127C188.891 217.442 189.668 220.908 190.883 224.464C192.36 228.785 194.015 232.593 194.326 237.263C194.562 240.81 194.584 242.594 190.975 243.099C190.514 243.163 190.686 242.564 189.654 242.924C190.25 237.958 188.134 234.528 188.178 229.879C188.222 225.306 185.754 221.226 183.821 217.247C183.236 216.043 182.264 215.869 181.201 216.754C178.244 219.217 175.002 219.135 171.487 218.14C165.549 216.459 159.461 214.681 153.261 215.85C152.092 216.071 151.577 216.024 150.556 215.358C149.26 214.512 149.331 214.144 150.31 213.143C155.011 208.338 159.857 205.381 166.785 204.528C168.968 204.26 171.74 203.85 173.916 203.544C176.349 203.202 176.257 201.383 174.772 199.421C169.394 192.315 164.475 184.841 158.362 178.32C157.221 177.104 155.635 176.141 154.071 175.531C152.039 174.737 150.254 173.641 148.642 172.256C147.625 171.383 146.68 171.518 145.722 172.097C140.167 175.458 136.009 180.329 131.905 185.209C130.365 187.039 129.796 189.504 129.568 191.866C129.198 195.691 129.14 199.545 128.891 203.383C128.818 204.517 129.6 206.338 128.007 206.551C126.434 206.762 124.695 206.019 123.803 204.327C123.422 203.604 123.101 202.849 122.638 201.95ZM124.429 151.768C124.052 151.611 123.685 151.423 123.296 151.302C117.646 149.545 111.788 148.803 105.95 148.257C101.858 147.875 97.766 147.433 93.5506 147.681C89.9814 147.89 86.3073 148.82 82.6111 147.84C80.6021 147.307 78.3369 147.122 76.2941 147.448C69.3346 148.562 61.7518 156.979 61.135 164.036C60.8089 167.766 60.3166 171.571 63.4878 174.558C64.3157 175.338 65.1069 176.193 65.7456 177.129C66.8674 178.774 67.92 178.485 69.1264 177.268C70.9121 175.466 72.8456 173.9 75.0431 172.551C81.5277 168.568 88.89 166.669 95.733 163.544C99.8671 161.657 104.295 159.904 108.829 159.795C113.516 159.683 118.099 159.07 122.725 158.601C123.924 158.479 125.067 159.096 126.222 159.566C129.261 160.804 132.507 161.245 135.773 161.275C136.91 161.286 137.849 160.552 136.719 159.383C134.498 157.087 132.869 154.045 128.996 153.819C127.553 153.735 126.171 152.603 124.429 151.768Z"/>
</mask>
<path d="M122.638 201.95C121.657 200.333 122.181 198.592 121.76 197.189C120.621 203.199 121.303 209.327 121.687 215.423C121.962 219.79 123.576 223.946 126.765 227.058C128.754 229 126.516 230.15 126.452 231.663C126.401 232.877 125.484 233.891 123.963 233.916C122.803 233.935 122.249 233.351 122.328 232.272C122.587 228.748 121.187 225.753 119.619 222.728C117.923 219.455 118.048 215.737 117.553 212.183C117.376 210.914 117.377 209.62 117.291 208.246C115.82 208.32 115.57 209.245 115.31 210.05C112.691 218.178 110.636 226.406 111.161 235.054C111.276 236.953 110.532 238.173 108.724 238.825C107.659 239.209 106.717 239.411 105.744 238.593C104.719 237.731 104.405 236.716 104.995 235.539C107.671 230.206 105.603 224.04 107.971 218.654C108.079 218.408 107.921 218.045 107.868 217.566C106.195 218.217 105.413 219.634 104.39 220.726C100.566 224.808 96.0697 228.123 91.914 231.826C91.0973 232.553 90.176 232.977 89.3205 232.083C88.4966 231.221 88.5448 230.072 89.2009 229.129C89.6023 228.553 90.2856 228.149 90.8927 227.743C95.094 224.934 99.1925 222.007 102.357 217.981C102.657 217.599 103.032 217.219 103.169 216.775C103.56 215.5 104.986 214.191 103.952 212.917C102.856 211.567 101.2 212.348 99.8235 212.82C97.7387 213.537 95.5991 213.163 93.4869 213.314C91.8209 213.434 90.1259 213.383 89.4174 215.627C88.9186 217.207 87.205 216.743 85.9677 216.518C84.6924 216.287 84.4239 215.365 84.6505 214.082C85.2935 210.442 85.8437 210.144 89.4889 210.411C96.0454 210.89 102.661 211.342 108.216 206.668C110.335 204.885 112.318 203.001 113.259 200C111.368 199.683 110.267 200.608 109.217 201.411C106.323 203.624 103.092 205.194 99.7963 206.673C98.6436 207.191 97.4706 207.475 96.2205 207.343C93.4936 207.056 90.8018 206.216 88.0937 207.783C87.1218 208.345 85.845 207.682 84.9689 206.83C84.0575 205.945 83.2434 204.872 83.7119 203.581C84.1687 202.322 85.4852 202.657 86.5182 202.648C89.0399 202.625 91.3731 203.679 93.4997 204.692C95.3969 205.596 97.0425 205.666 98.6042 204.854C102.305 202.929 105.863 200.729 109.464 198.615C109.87 198.376 110.279 198.041 110.252 197.135C108.143 196.244 105.757 196.846 103.525 196.636C98.8106 196.192 94.0671 196.28 89.7739 193.762C88.7767 193.177 87.8563 192.582 86.9971 191.815C86.0229 190.945 85.611 189.93 86.0727 188.749C86.6295 187.325 87.733 188.275 88.6142 188.345C90.0153 188.456 91.3617 188.245 92.7438 187.97C99.8445 186.559 106.49 183.718 112.998 180.799C117.855 178.62 122.772 176.157 126.897 172.587C129.949 169.945 133.892 169.511 137.421 168.055C138.28 167.701 139.395 167.776 139.945 166.615C138.928 165.459 137.591 165.618 136.334 165.534C129.329 165.065 122.766 167.343 116.053 168.746C108.19 170.389 100.908 173.593 93.8517 177.213C88.3851 180.017 83.5268 183.99 79.1624 188.26C76.6421 190.725 74.4066 193.552 71.6877 195.892C67.9475 199.109 63.351 200.418 58.726 201.302C54.4901 202.111 51.7675 198.117 53.6355 194.228C55.0948 191.19 57.005 188.44 59.2856 185.929C61.4833 183.508 62.2629 182.071 59.426 179.335C54.2792 174.37 53.4836 167.971 54.5026 161.181C55.2231 156.38 57.0246 152.068 60.075 148.286C60.491 147.77 60.9729 147.257 60.4588 146.549C60.0212 145.947 59.3528 145.752 58.7054 145.968C56.8899 146.571 55.2399 146.369 53.5012 145.535C51.9005 144.766 50.557 144.897 50.2265 147.22C49.1753 154.611 44.4533 160.254 40.6635 166.258C38.0917 170.332 37.4683 174.975 35.6304 179.228C35.4775 179.582 35.4206 180.096 35.5588 180.438C36.4976 182.766 36.3049 184.986 35.3945 187.308C35.0089 188.291 34.7332 189.198 33.6842 189.464C32.5007 189.764 31.1702 190.044 30.1391 189.224C29.1063 188.403 29.8738 187.362 30.3413 186.564C31.7177 184.215 30.6499 181.628 31.146 179.253C32.4526 172.997 34.3155 166.926 38.1806 161.653C39.1977 160.265 40.3779 158.851 40.4983 157.046C39.7916 156.468 39.2604 156.775 38.7804 157.07C33.4441 160.347 28.5621 164.142 24.9007 169.324C24.258 170.234 23.9439 171.047 24.4153 172.256C25.3967 174.773 22.9608 178.264 20.2428 178.482C17.3892 178.711 16.0865 176.712 17.5312 173.962C20.0567 169.155 22.1738 164.052 26.8113 160.673C28.0551 159.766 29.0676 158.517 30.499 157.851C35.802 155.383 39.3079 150.555 44.1399 147.466C44.662 147.132 45.2441 146.54 44.7924 145.815C44.2905 145.009 43.4514 145.144 42.854 145.632C36.7313 150.631 29.0709 152.809 22.4102 156.824C20.2388 158.133 18.5087 159.477 17.6866 162.118C17.0262 164.24 15.0448 165.622 12.8516 166.331C11.7868 166.675 10.6577 166.538 9.99724 165.496C9.43574 164.61 9.3778 163.585 10.2069 162.782C11.0813 161.935 11.2401 160.747 11.7354 159.735C12.8897 157.376 15.1923 156.586 17.2137 155.51C20.9592 153.514 24.9009 151.888 28.6433 149.888C31.6426 148.285 34.9789 147.247 37.5203 144.831C38.0426 144.334 38.8449 143.942 38.5166 143.053C38.2336 142.286 37.4777 142.032 36.7195 141.955C29.1929 141.192 21.6811 141.207 14.2005 142.461C13.3618 142.602 12.7215 143.018 12.3767 143.904C11.4985 146.161 9.6538 147.027 7.44595 146.554C5.08288 146.047 4.52316 143.694 4.04646 141.814C3.70187 140.455 5.3491 140.198 6.50726 140.111C10.996 139.778 15.4863 139.465 19.9775 139.165C23.4175 138.936 26.7749 137.759 30.7203 139.003C30.2102 138.136 30.1609 137.923 30.0549 137.89C24.2544 136.045 19.2901 132.542 13.9392 129.806C12.721 129.183 11.1599 128.576 11.4603 127.196C11.8023 125.625 12.4968 123.603 14.2782 123.17C15.9025 122.776 17.0916 123.994 17.7703 125.619C19.4045 129.533 22.9724 131.395 26.5719 132.53C30.8384 133.876 35.1599 135.109 39.452 136.41C39.7345 136.496 40.0571 136.449 40.3419 136.463C40.7636 135.357 39.9163 135.033 39.4018 134.618C32.5739 129.106 27.8398 121.927 23.4757 114.479C22.1309 112.184 20.9799 109.86 18.0377 109.502C17.8092 108.292 18.4304 107.434 18.7517 106.547C19.1841 105.354 20.32 104.876 21.5159 104.841C22.5928 104.809 22.899 105.744 23.338 106.565C27.2411 113.859 31.2213 121.163 36.9043 127.224C40.6688 131.239 44.5882 135.274 50.4375 137.923C48.7028 134.897 46.9982 132.662 44.957 130.762C43.5758 129.477 42.6308 128.054 42.0365 126.315C41.0826 123.523 40.2387 120.683 39.1008 117.968C36.8121 112.506 38.7483 107.57 40.7399 102.611C40.9206 102.161 41.2637 101.779 41.5023 101.349C45.0807 94.9043 48.6008 94.5651 53.4597 100.201C55.247 102.275 56.9295 102.41 59.0191 100.649C62.0924 98.058 64.0831 98.8743 65.0418 102.859C66.3399 108.255 67.8529 113.597 69.7817 118.814C71.1585 122.539 74.2597 124.486 77.523 125.955C79.8864 127.019 82.0368 128.304 83.9599 129.92C86.4647 132.025 89.5269 133.938 92.3348 134.293C99.7904 135.238 105.985 139.63 113.25 140.93C116.34 141.482 119.344 142.906 121.987 144.742C123.667 145.908 125.835 146.102 127.299 147.692C127.761 148.194 128.671 148.149 129.47 147.596C129.658 145.926 128.903 144.488 127.531 143.748C123.18 141.402 120.789 137.218 117.776 133.636C116.731 132.392 115.826 131.035 114.646 129.881C106.821 122.231 98.0161 115.919 88.9526 109.797C73.6177 99.4393 56.7723 92.8279 39.2493 87.4687C34.1773 85.9174 29.2233 83.9422 24.1131 82.4386C21.8824 81.7823 19.9083 80.4674 20.553 77.4973C20.6029 77.2676 20.5458 77.0047 20.4985 76.7651C19.8532 73.4959 20.26 72.5223 23.5176 71.6284C30.5957 69.6864 37.5381 69.1917 44.9166 71.3145C58.3 75.1648 70.0808 81.7764 81.1274 89.9749C83.0294 91.3865 84.7387 93.0591 87.173 93.5837C88.2521 93.8164 88.4875 94.9822 89.1777 95.6582C96.0902 102.428 103.206 109.01 109.788 116.088C112.339 118.832 115.011 121.619 117.082 124.839C119.682 128.881 122.694 132.582 126.463 136.13C127.165 134.15 126.558 132.727 126.034 131.303C124.665 127.585 122.346 124.37 120.46 120.93C119.395 118.988 118.381 117.15 118.11 114.872C117.941 113.458 116.957 112.209 115.985 111.077C114.423 109.257 113.193 107.275 112.775 104.833C112.407 102.678 110.89 101.269 109.284 99.9429C107.883 98.7865 106.563 97.5891 106.579 95.509C106.587 94.3547 105.788 93.6577 104.679 93.643C96.6228 93.5363 91.0106 88.6616 85.6086 83.6305C81.468 79.7743 77.4241 75.8199 72.8718 72.4541C70.1428 70.4364 66.8334 69.5752 63.6777 68.4947C61.4716 67.7393 59.6402 66.7792 58.6943 64.518C58.1696 63.2634 57.0635 62.4865 56.021 61.6872C55.0726 60.9601 54.388 60.1236 54.3738 58.8297C54.3062 52.6487 56.236 52.5791 61.8687 54.4926C70.1369 57.3014 77.7462 61.7534 83.7164 68.6025C87.7008 73.1735 92.6013 76.8269 97.4974 80.4111C98.0227 80.7957 98.6017 81.1442 99.2074 81.3726C100.085 81.7035 101.086 82.4921 101.919 81.5421C102.601 80.7645 101.921 79.861 101.681 79.003C100.199 73.7175 98.342 68.5744 96.2444 63.5001C94.1674 58.4756 91.485 53.8325 87.8811 49.7978C84.6176 46.1441 84.2779 41.4668 82.9541 37.1261C82.6507 36.1314 83.4513 35.2795 83.7639 34.5406C83.3025 33.4358 82.2936 33.2153 81.7255 32.5212C81.1696 31.8419 80.8301 31.0822 81.3162 30.2686C81.8276 29.4127 82.6342 29.5523 83.4956 29.7406C86.5902 30.417 88.8166 32.5113 91.2188 34.3347C92.5031 35.3095 93.8305 36.2274 95.0826 37.1307C95.9536 36.4336 95.4858 35.9558 95.2005 35.4914C93.0459 31.9844 90.4712 28.8043 87.6398 25.8281C86.8304 24.9773 85.8175 24.502 84.6934 24.1407C82.9172 23.5697 81.4967 22.5581 81.143 20.355C85.4648 18.0454 88.0756 23.0622 92.1138 22.7321C91.1814 19.4873 90.132 16.3769 88.512 13.4659C87.9837 12.5167 86.8571 11.3902 88.3722 10.5395C89.6875 9.80098 91.0069 10.2123 92.0797 11.4521C94.3415 14.066 94.8389 17.3295 95.5211 20.5138C95.7091 21.3914 95.6724 22.3789 96.1782 23.1049C98.9964 27.1504 98.2897 31.8398 98.7388 36.4801C99.95 36.4087 99.9067 35.6065 99.9795 34.6762C100.232 31.4516 99.6679 28.3051 99.0753 25.184C98.128 20.1939 98.3099 15.0962 97.4465 10.0877C97.1566 8.40629 97.9256 6.4972 98.0658 4.64577C98.2265 2.52449 100.133 3.65471 101.229 4.05359C102.227 3.69312 102.239 2.85272 102.579 2.22603C103.122 1.22427 103.217 -0.476235 104.985 0.125808C106.604 0.676927 108.413 1.37163 108.144 3.60868C107.943 5.28595 107.838 6.99336 106.74 8.49818C105.259 10.5279 105.31 12.9773 105.401 15.3663C105.538 18.9638 106.237 22.5313 105.924 26.1573C105.854 26.9746 106.108 27.7918 107.131 28.1566C108.462 27.4083 108.619 26.1562 108.483 24.8002C108.032 20.3138 107.815 15.8387 108.035 11.3119C108.188 8.16191 109.757 5.34649 109.68 2.17589C109.657 1.22906 110.598 0.597294 111.642 0.772017C112.826 0.970242 113.624 1.8343 113.615 2.97464C113.595 5.75232 114.049 8.55479 113.42 11.306C113.14 12.5325 113.125 13.7431 113.212 14.9699C113.289 16.0416 113.821 16.5565 114.976 16.512C118.794 16.365 120.275 18.5076 118.729 22.0617C117.686 24.4601 116.682 26.944 115.196 29.0631C113.488 31.4981 113.378 34.0416 114.767 36.1909C118.777 42.3958 117.569 48.8461 116.391 55.4013C115.83 58.523 116.316 61.6105 117.347 64.5744C118.303 67.3206 118.45 70.4105 120.653 72.6532C120.93 72.9355 121.066 73.3721 121.834 73.3622C122.621 71.6721 122.675 69.7638 121.808 68.1535C121.069 66.7807 120.67 65.2013 119.787 64.0056C118.189 61.8442 118.653 59.7141 119.193 57.4821C120.759 51.0098 123.778 45.9233 130.723 43.8137C133.023 43.115 134.981 41.1697 136.983 39.6463C138.266 38.6694 139.52 37.8582 140.903 39.1184C142.278 40.3717 141.564 41.676 140.744 43.0558C137.053 49.2651 132.265 54.9443 131.279 62.4862C130.919 65.243 130.465 67.9834 130.454 70.7764C130.44 74.5415 130.559 78.3004 129.559 82.0148C129.086 83.7729 128.641 85.4872 127.617 86.9997C126.314 88.9254 126.38 90.8273 127.055 93.0573C128.772 98.7353 131.123 104.314 130.809 110.43C130.706 112.457 130.705 114.518 129.904 116.453C129.786 116.738 129.641 117.163 129.764 117.373C130.851 119.224 130.714 121.072 129.973 122.996C129.784 123.485 129.768 124.145 130.651 124.761C132.296 122.051 132.897 119.061 133.028 116.06C133.329 109.166 134.266 102.345 136.379 95.8257C137.829 91.3538 139.51 86.9141 141.435 82.5589C144.432 75.7766 147.665 69.1066 151.089 62.5633C153.239 58.4531 155.308 54.0014 159.267 51.1057C161.658 49.3566 163.907 47.2922 167.279 47.4871C170.607 47.6794 173.896 49.8943 174.736 53.1856C175.662 56.8104 176.086 60.4213 172.995 63.4659C172.344 64.1068 171.982 65.1764 171.777 66.112C171.081 69.2899 169.346 71.7041 166.993 73.9151C161.784 78.8097 157.475 84.456 153.751 90.5669C151.592 94.1105 149.176 97.4772 147.274 101.201C144.415 106.801 143.401 113.044 140.884 118.716C138.27 124.607 138.428 130.825 137.841 136.98C137.76 137.831 138.015 138.596 138.282 139.375C138.467 139.915 138.854 140.544 138.72 141.01C137.404 145.597 140.105 149.068 141.77 152.882C142.886 155.437 143.863 157.99 145.926 159.974C146.625 160.646 147.105 161.559 148.224 161.66C149.282 161.084 148.928 160.077 148.919 159.245C148.826 150.586 151.013 142.568 155.515 135.168C157.771 131.459 160.282 127.829 162.131 123.966C165.509 116.908 168.054 109.458 163.614 101.745C162.499 99.8079 161.283 97.9673 158.671 97.7997C157.677 97.7359 156.63 96.6624 157.33 96.004C159.569 93.9001 159.025 90.7838 160.553 88.4276C162.305 85.7271 163.31 85.1325 166.287 86.2013C168.112 86.856 171.304 85.9211 172.277 84.2534C173.201 82.6709 174.356 82.3153 175.975 82.9786C178.518 84.0211 180.816 85.2067 181.844 88.1233C182.343 89.5373 183.353 90.9462 184.502 91.9205C187.383 94.3644 188.383 97.9039 190.104 101C190.816 102.281 190.676 104.021 191.005 105.535C191.192 106.394 191.356 107.432 192.482 107.549C193.468 107.652 193.939 106.814 194.238 106.069C195.998 101.679 198.524 97.5604 198.999 92.7067C199.12 91.4749 199.304 90.2323 198.885 89.0483C198.103 86.8375 199.007 84.8456 199.602 82.8208C199.887 81.8503 200.762 81.4281 201.688 81.3429C202.599 81.2592 202.821 82.1031 203.189 82.7361C205.121 86.0587 204.015 89.5579 203.323 92.7977C202.143 98.3156 200.205 103.642 197.076 108.456C196.363 109.553 195.408 110.737 195.833 112.331C197.126 112.586 197.806 111.654 198.514 110.945C202.071 107.39 204.788 103.242 207.187 98.8307C209.37 94.8154 211.393 90.7618 213.049 86.4847C214.028 83.9561 214.522 81.4654 214.392 78.8414C214.322 77.4206 214.601 76.4077 216.006 75.9349C217.552 75.4147 218.733 75.9578 219.589 77.286C220.584 78.8303 220.736 80.6139 220.386 82.2839C218.549 91.0609 216.223 99.5472 209.31 106.083C206.061 109.155 203.538 113.001 200.172 116.028C199.014 117.068 197.893 117.988 196.12 118.029C194.443 118.068 193.584 119.666 192.594 120.841C192.26 121.237 192.297 121.784 192.583 122.232C193.001 122.887 193.538 122.556 194.102 122.416C198.434 121.344 201.955 118.648 205.468 116.202C210.823 112.472 215.973 108.374 220.114 103.215C220.828 102.325 221.436 101.341 222.024 100.359C222.932 98.8402 224.294 99.0732 225.423 99.7183C226.59 100.384 226.527 101.501 225.811 102.7C223.121 107.204 220.41 111.695 215.883 114.632C213.085 116.447 210.247 118.23 207.284 119.748C205.012 120.912 203.038 122.375 200.521 124.268C203.626 125.171 206.237 124.984 208.755 125.334C210.699 125.605 212.711 125.482 214.622 125.875C216.778 126.319 219 126.982 219.116 129.864C219.138 130.416 219.51 130.732 219.926 131.02C221.733 132.272 227.252 131.987 229.022 130.548C229.34 130.289 229.633 129.982 229.988 129.791C231.395 129.034 232.814 127.637 234.478 128.787C236.285 130.036 234.819 132.132 235.292 133.816C235.503 134.565 234.185 134.912 233.37 134.886C229.884 134.778 226.361 135.214 222.935 134.145C222.333 133.958 221.483 133.785 221.019 134.061C217.407 136.212 214.636 133.643 211.601 132.521C209.932 131.903 208.564 130.336 206.05 130.818C207.385 132.441 208.365 133.949 209.643 135.134C216.955 141.911 217.206 150.865 213.645 159.268C213.253 160.193 212.671 160.982 211.825 161.539C210.935 162.125 209.991 162.856 208.888 162.332C207.597 161.717 208.164 160.548 208.261 159.506C208.822 153.446 207.698 147.571 205.932 141.842C204.377 136.8 199.835 135.137 195.393 134.549C188.031 133.573 180.528 132.963 173.38 136.107C173.012 136.269 172.559 136.458 172.199 136.381C168.214 135.539 166.345 138.138 164.299 140.87C159.765 146.923 156.529 153.538 154.713 160.876C154.198 162.957 154.704 164.685 155.838 166.443C160.463 173.616 165.966 180.092 171.4 186.641C173.731 189.45 175.623 192.623 178.198 194.975C179.224 194.946 179.484 194.354 179.7 193.865C181.999 188.661 187.762 184.793 191.621 182.87C193.77 181.881 195.055 180.326 196.374 178.281C198.014 176.716 198.803 176.861 200.719 177.701C202.652 178.548 202.225 179.521 201.703 180.901C199.644 186.343 199.712 191.975 198.998 197.637C198.232 203.708 194.841 209.095 188.424 211.42C187.103 211.899 186.207 212.86 186.949 214.127C188.891 217.442 189.668 220.908 190.883 224.464C192.36 228.785 194.015 232.593 194.326 237.263C194.562 240.81 194.584 242.594 190.975 243.099C190.514 243.163 190.686 242.564 189.654 242.924C190.25 237.958 188.134 234.528 188.178 229.879C188.222 225.306 185.754 221.226 183.821 217.247C183.236 216.043 182.264 215.869 181.201 216.754C178.244 219.217 175.002 219.135 171.487 218.14C165.549 216.459 159.461 214.681 153.261 215.85C152.092 216.071 151.577 216.024 150.556 215.358C149.26 214.512 149.331 214.144 150.31 213.143C155.011 208.338 159.857 205.381 166.785 204.528C168.968 204.26 171.74 203.85 173.916 203.544C176.349 203.202 176.257 201.383 174.772 199.421C169.394 192.315 164.475 184.841 158.362 178.32C157.221 177.104 155.635 176.141 154.071 175.531C152.039 174.737 150.254 173.641 148.642 172.256C147.625 171.383 146.68 171.518 145.722 172.097C140.167 175.458 136.009 180.329 131.905 185.209C130.365 187.039 129.796 189.504 129.568 191.866C129.198 195.691 129.14 199.545 128.891 203.383C128.818 204.517 129.6 206.338 128.007 206.551C126.434 206.762 124.695 206.019 123.803 204.327C123.422 203.604 123.101 202.849 122.638 201.95ZM124.429 151.768C124.052 151.611 123.685 151.423 123.296 151.302C117.646 149.545 111.788 148.803 105.95 148.257C101.858 147.875 97.766 147.433 93.5506 147.681C89.9814 147.89 86.3073 148.82 82.6111 147.84C80.6021 147.307 78.3369 147.122 76.2941 147.448C69.3346 148.562 61.7518 156.979 61.135 164.036C60.8089 167.766 60.3166 171.571 63.4878 174.558C64.3157 175.338 65.1069 176.193 65.7456 177.129C66.8674 178.774 67.92 178.485 69.1264 177.268C70.9121 175.466 72.8456 173.9 75.0431 172.551C81.5277 168.568 88.89 166.669 95.733 163.544C99.8671 161.657 104.295 159.904 108.829 159.795C113.516 159.683 118.099 159.07 122.725 158.601C123.924 158.479 125.067 159.096 126.222 159.566C129.261 160.804 132.507 161.245 135.773 161.275C136.91 161.286 137.849 160.552 136.719 159.383C134.498 157.087 132.869 154.045 128.996 153.819C127.553 153.735 126.171 152.603 124.429 151.768Z" fill="#EAE86F" stroke="black" mask="url(#path-1-inside-1_37_588)"/>
<path d="M155.736 166.724L155.744 166.743L155.756 166.761C156.613 168.091 157.568 169.384 158.509 170.658C158.827 171.088 159.142 171.515 159.452 171.941C162.633 176.314 166.114 180.49 169.579 184.647C170.224 185.42 170.869 186.194 171.511 186.967C172.814 188.538 174.181 190.221 175.44 191.77C176.441 193.002 177.373 194.15 178.15 195.089L178.25 195.21L178.403 195.172C178.905 195.047 179.219 194.913 179.435 194.718C179.633 194.539 179.728 194.322 179.82 194.112C179.828 194.093 179.836 194.074 179.845 194.055C182.113 188.918 186.018 185.557 191.075 183.231C193.267 182.222 195.155 180.589 196.5 178.505C197.13 177.529 197.82 177.114 198.556 177.019C199.31 176.922 200.156 177.153 201.103 177.568C201.558 177.768 201.862 178 202.06 178.245C202.256 178.488 202.358 178.756 202.395 179.044C202.469 179.634 202.269 180.305 202.008 180.996C200.968 183.745 200.451 186.555 200.104 189.38C199.935 190.753 199.806 192.132 199.678 193.508L199.667 193.626C199.534 195.043 199.401 196.458 199.223 197.869C198.466 203.87 195.281 209.18 188.972 211.465C188.636 211.587 188.337 211.715 188.092 211.863C187.847 212.01 187.642 212.184 187.509 212.405C187.229 212.872 187.335 213.427 187.721 214.085C188.675 215.714 189.266 217.472 189.771 219.277C189.932 219.851 190.084 220.432 190.238 221.016C190.563 222.257 190.891 223.508 191.306 224.723C191.445 225.127 191.584 225.531 191.722 225.933C193.072 229.847 194.403 233.706 194.683 237.903C194.801 239.679 194.682 240.793 194.151 241.532C193.626 242.261 192.651 242.688 190.857 242.939C190.597 242.976 190.349 243.06 190.052 243.172C189.972 243.202 189.888 243.235 189.798 243.269C189.638 243.331 189.459 243.4 189.251 243.477C189.471 241.102 189.104 238.874 188.681 236.709C188.627 236.429 188.571 236.15 188.516 235.872C188.117 233.871 187.729 231.919 187.748 229.906C187.793 225.266 185.892 221.2 183.962 217.226C183.65 216.583 183.207 216.162 182.652 216.059C182.101 215.957 181.519 216.183 180.958 216.65C178.092 219.037 174.95 218.973 171.472 217.988C165.518 216.303 159.441 215.269 153.184 216.449C152.078 216.657 151.045 216.459 150.078 215.828C149.464 215.427 149.214 215.025 149.186 214.652C149.157 214.273 149.35 213.839 149.817 213.362C154.502 208.573 159.693 204.727 166.538 203.885C167.546 203.761 168.562 203.69 169.585 203.619C169.661 203.613 169.738 203.608 169.814 203.603C170.912 203.526 172.018 203.444 173.116 203.29C174.346 203.117 175.238 202.709 175.58 201.991C175.927 201.261 175.643 200.355 174.888 199.358C173.398 197.39 171.942 195.39 170.484 193.389C166.69 188.18 162.885 182.957 158.46 178.237C157.289 176.988 155.668 176.007 154.079 175.386L153.988 175.619L154.079 175.386C152.074 174.603 150.313 173.522 148.721 172.155C148.666 172.107 148.611 172.055 148.549 171.997L148.541 171.989C148.477 171.928 148.407 171.862 148.332 171.798C148.179 171.668 147.994 171.54 147.756 171.461C147.271 171.3 146.642 171.365 145.714 171.826C144.295 172.53 142.069 174.216 138.376 177.755C139.104 176.952 139.922 176.091 140.802 175.234C142.47 173.61 144.353 172.009 146.256 170.846C148.164 169.68 150.062 168.972 151.768 169.09L152.035 169.108V168.841C152.035 165.822 153.551 161.559 155.088 158.018C155.293 157.548 155.497 157.091 155.698 156.653C154.634 159.793 154.329 161.804 154.394 163.191C154.442 164.216 154.692 164.898 154.981 165.436C155.104 165.665 155.234 165.867 155.351 166.05C155.37 166.079 155.388 166.107 155.406 166.135C155.54 166.344 155.653 166.529 155.736 166.724Z" fill="#1B421B" stroke="black" stroke-width="0.5"/>
</g>
<defs>
<filter id="filter0_d_37_588" x="0" y="0" width="239.409" height="251.847" filterUnits="userSpaceOnUse" color-interpolation-filters="sRGB">
<feFlood flood-opacity="0" result="BackgroundImageFix"/>
<feColorMatrix in="SourceAlpha" type="matrix" values="0 0 0 0 0 0 0 0 0 0 0 0 0 0 0 0 0 0 127 0" result="hardAlpha"/>
<feOffset dy="4"/>
<feGaussianBlur stdDeviation="2"/>
<feComposite in2="hardAlpha" operator="out"/>
<feColorMatrix type="matrix" values="0 0 0 0 0 0 0 0 0 0 0 0 0 0 0 0 0 0 0.25 0"/>
<feBlend mode="normal" in2="BackgroundImageFix" result="effect1_dropShadow_37_588"/>
<feBlend mode="normal" in="SourceGraphic" in2="effect1_dropShadow_37_588" result="shape"/>
</filter>
</defs>
</svg>
